<?xml version="1.0" encoding="UTF-8"?>
<svg xmlns="http://www.w3.org/2000/svg" width="22" height="22" viewBox="0 0 22 22" fill="none">
  <path d="M21 11C21 5.49219 16.5078 1 11 1C5.49219 1 1 5.49219 1 11C1 13.8516 2.21094 16.3906 4.08594 18.2266C4.08594 18.2266 4.08594 18.2266 4.125 18.2656C4.125 18.2656 4.16406 18.2656 4.20313 18.3047C5.96094 19.9844 8.38281 21 11 21C13.7344 21 16.1953 19.9063 17.9922 18.1094C18.0313 18.1094 18.0313 18.1094 18.0313 18.1094C18.0313 18.1094 18.0313 18.1094 18.0313 18.0703C19.8672 16.2734 21 13.7734 21 11ZM1.70313 11C1.70313 5.88281 5.88281 1.70313 11 1.70313C16.1172 1.70313 20.2969 5.88281 20.2969 11C20.2969 13.4609 19.3203 15.7266 17.7578 17.4063C17.1719 16.9375 16.3906 16.625 15.7266 16.5469C15.3359 16.5469 14.6328 16.3906 14.0469 16.2734C13.5391 16.1563 13.2266 16.0391 13.1094 16C13.1484 15.8438 13.1875 15.6875 13.3438 15.4922C14.5156 14.5938 15.1797 13.0703 15.1797 11.3906C15.1797 8.69531 13.3047 6.46875 11 6.46875C8.69531 6.46875 6.82031 8.69531 6.82031 11.3906C6.82031 13.0703 7.52344 14.5938 8.69531 15.4922C8.8125 15.6875 8.89063 15.8438 8.92969 16.0391C8.77344 16.1172 8.5 16.2344 7.95313 16.3516C7.79688 16.3906 7.60156 16.4297 7.40625 16.4688C6.97656 16.5859 6.54688 16.7031 6.27344 16.7422C5.6875 16.7813 4.98438 17.0938 4.39844 17.5625C2.71875 15.8828 1.70313 13.5391 1.70313 11ZM4.90625 18.0313C5.375 17.6797 5.92188 17.4453 6.35156 17.4063C6.66406 17.3672 7.09375 17.2891 7.5625 17.1719C7.75781 17.0938 7.95313 17.0547 8.10938 17.0156C8.85156 16.8594 9.32031 16.6641 9.51563 16.5078C9.59375 16.4297 9.63281 16.3125 9.63281 16.2344C9.63281 15.8438 9.51563 15.4531 9.24219 15.1016C9.24219 15.0625 9.20313 15.0234 9.16406 14.9844C8.14844 14.2031 7.52344 12.875 7.52344 11.3906C7.52344 9.08594 9.08594 7.17188 11 7.17188C12.9531 7.17188 14.5156 9.08594 14.5156 11.3906C14.5156 12.875 13.8906 14.2031 12.875 14.9844C12.8359 15.0234 12.8359 15.0234 12.7969 15.0625C12.5234 15.4141 12.4063 15.7656 12.3672 16.1953C12.3672 16.2734 12.4063 16.3906 12.4844 16.4297C12.6797 16.5859 13.1484 16.7422 13.8906 16.9375C14.5156 17.0938 15.2578 17.2109 15.6484 17.25C16.1172 17.2891 16.7422 17.4844 17.25 17.875C15.6094 19.3984 13.4219 20.2969 11 20.2969C8.65625 20.2969 6.54688 19.4375 4.90625 18.0313Z" fill="#9E759B" stroke="#9E759B" stroke-width="0.5"></path>
</svg>
