<?xml version="1.0" encoding="UTF-8"?>
<svg xmlns="http://www.w3.org/2000/svg" width="31" height="30" viewBox="0 0 31 30" fill="none">
  <path d="M24.2678 17.023C24.353 16.6847 24.7056 16.4765 25.053 16.5595C25.4005 16.6426 25.6143 16.9858 25.529 17.3241C24.9677 19.541 23.6493 21.4678 21.8572 22.8322C20.1022 24.168 17.8942 24.9661 15.4976 24.9661C12.6443 24.9661 10.0606 23.8397 8.19244 22.0193C6.32417 20.2002 5.16604 17.6834 5.16604 14.9063C5.16604 12.1306 6.3229 9.6162 8.19244 7.79466C10.0607 5.97182 12.6455 4.8454 15.4976 4.8454C17.8927 4.8454 20.1021 5.64343 21.8572 6.97929C23.6491 8.34363 24.9663 10.2718 25.529 12.4874C25.6143 12.8257 25.4004 13.1701 25.053 13.252C24.7056 13.335 24.3518 13.1268 24.2678 12.7885C23.7765 10.8517 22.626 9.16637 21.0606 7.97422C19.5296 6.80814 17.599 6.11296 15.5005 6.11296C13.0074 6.11296 10.7497 7.09688 9.11547 8.68799C7.48138 10.2779 6.47087 12.476 6.47087 14.9051C6.47087 17.3326 7.48138 19.5309 9.11547 21.1222C10.7483 22.712 13.0059 23.6972 15.5005 23.6972C17.6004 23.6972 19.5297 23.002 21.0606 21.8359C22.626 20.6438 23.7765 18.9586 24.2678 17.0216V17.023ZM24.5312 14.8209C24.5299 14.4715 24.8188 14.1877 25.1777 14.1865C25.5366 14.1852 25.8281 14.4665 25.8293 14.816V14.9994C25.8281 15.3489 25.5366 15.6289 25.1777 15.6289C24.8188 15.6277 24.5312 15.3439 24.5312 14.9944V14.8209ZM17.7822 1.25806C17.4284 1.20353 17.1866 0.878872 17.2426 0.534391C17.2986 0.18991 17.6321 -0.0455387 17.9859 0.00899324C21.7046 0.593903 24.9792 2.46382 27.3132 5.13671C29.6117 7.76998 31 11.1815 31 14.9077C31 19.0752 29.2641 22.8496 26.4603 25.5797C23.6553 28.3109 19.7801 30 15.5 30C11.2199 30 7.34487 28.311 4.53972 25.5797C1.73457 22.8484 0 19.0752 0 14.9077C0 13.6314 0.164175 12.3897 0.472151 11.2012C0.790316 9.97689 1.26121 8.81209 1.86443 7.72785C2.03497 7.42054 2.4295 7.3053 2.7451 7.4701C3.06072 7.63616 3.17907 8.02031 3.00982 8.32761C2.45749 9.32143 2.02606 10.3884 1.73587 11.5085C1.45461 12.5928 1.30444 13.7328 1.30444 14.9076C1.30444 18.7242 2.894 22.1817 5.46362 24.6834C8.03185 27.1841 11.5825 28.7332 15.5035 28.7332C19.4232 28.7332 22.9741 27.1854 25.5434 24.6834C28.1116 22.1827 29.7026 18.7255 29.7026 14.9076C29.7026 11.4923 28.4325 8.366 26.3263 5.95441C24.1882 3.50704 21.1897 1.79329 17.788 1.25907L17.7822 1.25806ZM4.16472 6.57675C3.94709 6.85433 3.53856 6.90762 3.25349 6.69571C2.96841 6.48381 2.91367 6.08603 3.13131 5.80845L3.2433 5.66718C3.46093 5.38961 3.86946 5.33631 4.15454 5.54822C4.43961 5.76013 4.49435 6.15791 4.27671 6.43548L4.16472 6.57675ZM5.71482 4.88651C5.45519 5.12691 5.04285 5.11824 4.79596 4.86421C4.54906 4.61141 4.55797 4.20992 4.81887 3.96952C5.93754 2.93357 7.21657 2.05748 8.6151 1.38085C9.97813 0.722854 11.457 0.251956 13.0134 0.00784708C13.3672 -0.0466786 13.7007 0.188767 13.7566 0.533245C13.8126 0.877726 13.5708 1.20241 13.217 1.25691C11.7942 1.47996 10.4401 1.9112 9.19047 2.51467C7.91144 3.13302 6.74061 3.93602 5.71482 4.88524L5.71482 4.88651ZM10.9456 17.1161L10.901 17.069C10.5701 16.7233 10.406 16.2809 10.4072 15.841C10.4098 15.38 10.5905 14.9178 10.9507 14.5683L10.9965 14.525C11.3528 14.2028 11.8072 14.0429 12.2602 14.0429C12.7337 14.0442 13.2109 14.2214 13.5685 14.5733L14.3996 15.3862L17.1193 10.5881C17.3649 10.1531 17.7696 9.85449 18.2265 9.7256C18.6808 9.59672 19.1873 9.63638 19.634 9.87554C20.0807 10.1147 20.3874 10.5088 20.5198 10.9536C20.6522 11.3972 20.6115 11.8892 20.3658 12.3241L16.4334 19.2585C16.3939 19.3254 16.3507 19.3874 16.3087 19.4419C16.2527 19.5138 16.1954 19.5782 16.1369 19.6352L16.0885 19.6786C15.7335 20.0008 15.2778 20.1606 14.8273 20.1594C14.3539 20.1569 13.8792 19.9809 13.5203 19.6302L10.9456 17.1161ZM11.8657 16.2202L14.439 18.7357C14.5459 18.8435 14.6872 18.898 14.8259 18.898C14.957 18.898 15.0893 18.8534 15.1937 18.7642L15.2713 18.6824C16.5249 16.9364 18.0992 13.7082 19.2282 11.717C19.302 11.5869 19.3147 11.4394 19.2753 11.308C19.2358 11.1767 19.1442 11.0602 19.0105 10.9871C18.8769 10.9152 18.7255 10.9028 18.5906 10.9412C18.4556 10.9797 18.336 11.0689 18.2609 11.199L15.1226 16.7356C15.0933 16.7864 15.0551 16.836 15.0106 16.8794C14.756 17.126 14.345 17.1235 14.0917 16.8769L12.6485 15.4667C12.5416 15.3626 12.4003 15.3081 12.2616 15.3081C12.1318 15.3081 11.9982 15.3527 11.8938 15.4419L11.8722 15.4642C11.7615 15.5683 11.7055 15.7059 11.7055 15.8409C11.7055 15.9673 11.7513 16.0974 11.8429 16.1991L11.8657 16.2202Z" fill="#5B88CD"></path>
</svg>
