<?xml version="1.0" encoding="UTF-8"?>
<svg xmlns="http://www.w3.org/2000/svg" width="22" height="21" viewBox="0 0 22 21" fill="none">
  <path d="M19.7111 6.03721C19.5333 5.77209 19.4 5.50698 19.2222 5.24186C19.7556 4.93256 20.1111 4.35814 20.1111 3.69535C20.1111 2.72326 19.2667 1.88372 18.2889 1.88372C17.6222 1.88372 17.0444 2.2814 16.7333 2.81163C16.4667 2.63488 16.2 2.45814 15.9333 2.32558C16.4222 1.53023 17.3111 1 18.2889 1C19.8 1 21 2.19302 21 3.69535C21 4.71163 20.4667 5.55116 19.7111 6.03721ZM20.1111 10.9419C20.1111 13.2837 19.2222 15.4047 17.7556 17.0395L19.9778 19.2488C20.1556 19.4256 20.1556 19.6907 19.9778 19.8674C19.8 20.0442 19.5333 20.0442 19.3556 19.8674L17.0889 17.6581C15.4889 19.1163 13.3556 20 11 20C8.64444 20 6.51111 19.1163 4.91111 17.6581L2.64444 19.8674C2.46667 20.0442 2.2 20.0442 2.02222 19.8674C1.84444 19.6907 1.84444 19.4256 2.02222 19.2488L4.24444 17.0395C2.77778 15.4047 1.88889 13.2837 1.88889 10.9419C1.88889 5.94884 5.97778 1.88372 11 1.88372C16.0222 1.88372 20.1111 5.94884 20.1111 10.9419ZM11 2.81163C6.46667 2.81163 2.82222 6.43488 2.82222 10.9419C2.82222 15.4488 6.46667 19.1163 11 19.1163C15.5333 19.1163 19.1778 15.4488 19.1778 10.9419C19.1778 6.43488 15.5333 2.81163 11 2.81163ZM11.4444 12.7093V16.8186C11.4444 17.0837 11.2667 17.3047 11 17.3047C10.7333 17.3047 10.5556 17.0837 10.5556 16.8186V12.7093C9.75556 12.4884 9.17778 11.7814 9.17778 10.9419C9.17778 10.6326 9.26667 10.2791 9.44444 10.014L7.48889 8.06977C7.31111 7.89302 7.31111 7.62791 7.48889 7.45116C7.66667 7.27442 7.93333 7.27442 8.11111 7.45116L10.0667 9.39535C10.3333 9.26279 10.6444 9.13023 11 9.13023C12.0222 9.13023 12.8222 9.96977 12.8222 10.9419C12.8222 11.7814 12.2444 12.4884 11.4444 12.7093ZM11 10.0581C10.5111 10.0581 10.1111 10.4558 10.1111 10.9419C10.1111 11.4721 10.5111 11.8698 11 11.8698C11.4889 11.8698 11.8889 11.4721 11.8889 10.9419C11.8889 10.4558 11.4889 10.0581 11 10.0581ZM3.71111 1.88372C2.73333 1.88372 1.88889 2.72326 1.88889 3.69535C1.88889 4.35814 2.24444 4.93256 2.77778 5.24186C2.6 5.50698 2.46667 5.77209 2.28889 6.03721C1.53333 5.55116 1 4.71163 1 3.69535C1 2.19302 2.2 1 3.71111 1C4.68889 1 5.57778 1.53023 6.06667 2.32558C5.8 2.45814 5.53333 2.63488 5.26667 2.81163C4.95556 2.2814 4.37778 1.88372 3.71111 1.88372Z" fill="#9E759B" stroke="#9E759B" stroke-width="0.5"></path>
</svg>
