<?xml version="1.0" encoding="UTF-8"?>
<svg xmlns="http://www.w3.org/2000/svg" width="32" height="23" viewBox="0 0 32 23" fill="none">
  <path fill-rule="evenodd" clip-rule="evenodd" d="M6.97199 2.3045C8.58543 2.3045 9.89167 3.61034 9.89167 5.21909C9.89167 6.82783 8.58543 8.13367 6.97199 8.13367C5.35854 8.13367 4.05227 6.82783 4.05227 5.21909C4.05227 3.61034 5.35854 2.3045 6.97199 2.3045ZM11.196 5.21909C11.196 2.88801 9.3039 1 6.97199 1C4.64004 1 2.74794 2.88801 2.74794 5.21909C2.74794 7.55017 4.64004 9.43817 6.97199 9.43817C9.3039 9.43817 11.196 7.55017 11.196 5.21909ZM22.1083 5.21909C22.1083 3.61034 23.4146 2.3045 25.028 2.3045C26.6415 2.3045 27.9477 3.61034 27.9477 5.21909C27.9477 6.82783 26.6415 8.13367 25.028 8.13367C23.4146 8.13367 22.1083 6.82783 22.1083 5.21909ZM25.028 1C22.6961 1 20.804 2.88801 20.804 5.21909C20.804 7.55017 22.6961 9.43817 25.028 9.43817C27.36 9.43817 29.2521 7.55017 29.2521 5.21909C29.2521 2.88801 27.36 1 25.028 1ZM21.1842 13.1239C21.8312 12.3543 22.8017 11.8667 23.8935 11.8667H26.1626C28.122 11.8667 29.6957 13.4396 29.6957 15.3937V18.3426C29.6957 18.7029 29.9876 18.9949 30.3478 18.9949C30.708 18.9949 31 18.7029 31 18.3426V15.3937C31 12.7172 28.8405 10.5622 26.1626 10.5622H23.8935C22.4032 10.5622 21.072 11.2303 20.1858 12.2844C19.9541 12.5602 19.9897 12.9716 20.2653 13.2034C20.5411 13.4353 20.9524 13.3996 21.1842 13.1239ZM16 5.30958C14.3866 5.30958 13.0803 6.61542 13.0803 8.22417C13.0803 9.83291 14.3866 11.1388 16 11.1388C17.6134 11.1388 18.9197 9.83291 18.9197 8.22417C18.9197 6.61542 17.6134 5.30958 16 5.30958ZM11.776 8.22417C11.776 5.89309 13.6681 4.00508 16 4.00508C18.3319 4.00508 20.224 5.89309 20.224 8.22417C20.224 10.5552 18.3319 12.4433 16 12.4433C13.6681 12.4433 11.776 10.5552 11.776 8.22417ZM11.3324 18.3988C11.3324 16.4446 12.9061 14.8717 14.8654 14.8717H17.1346C19.0939 14.8717 20.6676 16.4446 20.6676 18.3988V21.3477C20.6676 21.708 20.9596 22 21.3198 22C21.68 22 21.972 21.708 21.972 21.3477V18.3988C21.972 15.7223 19.8124 13.5672 17.1346 13.5672H14.8654C12.1876 13.5672 10.028 15.7223 10.028 18.3988V21.3477C10.028 21.708 10.32 22 10.6802 22C11.0404 22 11.3324 21.708 11.3324 21.3477V18.3988ZM5.83744 10.5622C3.15954 10.5622 1 12.7172 1 15.3937V18.3426C1 18.7029 1.29199 18.9949 1.65217 18.9949C2.01236 18.9949 2.30435 18.7029 2.30435 18.3426V15.3937C2.30435 13.4396 3.87804 11.8667 5.83744 11.8667H8.10654C9.19832 11.8667 10.1688 12.3543 10.8158 13.1239C11.0476 13.3996 11.4589 13.4353 11.7347 13.2034C12.0103 12.9716 12.0459 12.5602 11.8142 12.2844C10.928 11.2303 9.59676 10.5622 8.10654 10.5622H5.83744Z" fill="#9FB2BD" stroke="#9FB2BD" stroke-width="0.4"></path>
</svg>
