<?xml version="1.0" encoding="UTF-8"?>
<svg xmlns="http://www.w3.org/2000/svg" width="37" height="33" viewBox="0 0 37 33" fill="none">
  <path d="M9.24 0H7.92V33H9.24V0Z" fill="#5B88CD"></path>
  <path d="M5.28 3.96H3.96V29.04H5.28V3.96Z" fill="#5B88CD"></path>
  <path d="M1.32 13.86H0V19.14H1.32V13.86Z" fill="#5B88CD"></path>
  <path d="M33 5.94H31.68V27.06H33V5.94Z" fill="#5B88CD"></path>
  <path d="M29.04 9.9H27.72V23.1H29.04V9.9Z" fill="#5B88CD"></path>
  <path d="M25.08 13.86H23.76V19.14H25.08V13.86Z" fill="#5B88CD"></path>
  <path d="M36.96 13.86H35.64V19.14H36.96V13.86Z" fill="#5B88CD"></path>
  <path d="M21.12 6.6H19.8V26.4H21.12V6.6Z" fill="#5B88CD"></path>
  <path d="M17.16 10.56H15.84V22.44H17.16V10.56Z" fill="#5B88CD"></path>
  <path d="M13.2 4.62H11.88V28.38H13.2V4.62Z" fill="#5B88CD"></path>
</svg>
