<svg width="30" height="30" viewBox="0 0 30 30" fill="none" xmlns="http://www.w3.org/2000/svg">
<path d="M29 15C29 7.28906 22.7109 1 15 1C7.28906 1 1 7.28906 1 15C1 18.9922 2.69531 22.5469 5.32031 25.1172C5.32031 25.1172 5.32031 25.1172 5.375 25.1719C5.375 25.1719 5.42969 25.1719 5.48438 25.2266C7.94531 27.5781 11.3359 29 15 29C18.8281 29 22.2734 27.4688 24.7891 24.9531C24.8438 24.9531 24.8438 24.9531 24.8438 24.9531C24.8438 24.9531 24.8438 24.9531 24.8438 24.8984C27.4141 22.3828 29 18.8828 29 15ZM1.98438 15C1.98438 7.83594 7.83594 1.98438 15 1.98438C22.1641 1.98438 28.0156 7.83594 28.0156 15C28.0156 18.4453 26.6484 21.6172 24.4609 23.9688C23.6406 23.3125 22.5469 22.875 21.6172 22.7656C21.0703 22.7656 20.0859 22.5469 19.2656 22.3828C18.5547 22.2188 18.1172 22.0547 17.9531 22C18.0078 21.7813 18.0625 21.5625 18.2813 21.2891C19.9219 20.0313 20.8516 17.8984 20.8516 15.5469C20.8516 11.7734 18.2266 8.65625 15 8.65625C11.7734 8.65625 9.14844 11.7734 9.14844 15.5469C9.14844 17.8984 10.1328 20.0313 11.7734 21.2891C11.9375 21.5625 12.0469 21.7813 12.1016 22.0547C11.8828 22.1641 11.5 22.3281 10.7344 22.4922C10.5156 22.5469 10.2422 22.6016 9.96875 22.6563C9.36719 22.8203 8.76563 22.9844 8.38281 23.0391C7.5625 23.0938 6.57813 23.5313 5.75781 24.1875C3.40625 21.8359 1.98438 18.5547 1.98438 15ZM6.46875 24.8438C7.125 24.3516 7.89063 24.0234 8.49219 23.9688C8.92969 23.9141 9.53125 23.8047 10.1875 23.6406C10.4609 23.5313 10.7344 23.4766 10.9531 23.4219C11.9922 23.2031 12.6484 22.9297 12.9219 22.7109C13.0313 22.6016 13.0859 22.4375 13.0859 22.3281C13.0859 21.7813 12.9219 21.2344 12.5391 20.7422C12.5391 20.6875 12.4844 20.6328 12.4297 20.5781C11.0078 19.4844 10.1328 17.625 10.1328 15.5469C10.1328 12.3203 12.3203 9.64063 15 9.64063C17.7344 9.64063 19.9219 12.3203 19.9219 15.5469C19.9219 17.625 19.0469 19.4844 17.625 20.5781C17.5703 20.6328 17.5703 20.6328 17.5156 20.6875C17.1328 21.1797 16.9688 21.6719 16.9141 22.2734C16.9141 22.3828 16.9688 22.5469 17.0781 22.6016C17.3516 22.8203 18.0078 23.0391 19.0469 23.3125C19.9219 23.5313 20.9609 23.6953 21.5078 23.75C22.1641 23.8047 23.0391 24.0781 23.75 24.625C21.4531 26.7578 18.3906 28.0156 15 28.0156C11.7188 28.0156 8.76563 26.8125 6.46875 24.8438Z" fill="#9E759B" stroke="#9E759B" stroke-width="0.5"/>
</svg>
