<svg width="32" height="21" viewBox="0 0 32 21" fill="none" xmlns="http://www.w3.org/2000/svg">
<path d="M15.7108 0.0541437L0.598813 5.38777C0.251966 5.50756 0 5.86115 0 6.2281C0 6.59505 0.251966 6.94864 0.598813 7.06842L6.22413 9.05465V16.694C6.22413 17.4609 6.69273 18.0743 7.26585 18.5135C7.83898 18.9527 8.56606 19.2891 9.43264 19.5691C11.1658 20.1291 13.463 20.4581 16.0024 20.4581C18.5419 20.4581 20.8391 20.1291 22.5723 19.5691C23.4388 19.2891 24.1659 18.9527 24.739 18.5135C25.3122 18.0743 25.7808 17.4609 25.7808 16.694V11.7631C25.7874 11.2935 25.3615 10.8615 24.8918 10.8615C24.4221 10.8615 23.9963 11.2935 24.0029 11.7631V16.694C24.0029 16.7224 23.9798 16.8622 23.6557 17.1106C23.3315 17.3591 22.7568 17.6355 22.0167 17.8746C20.5363 18.3528 18.3877 18.6802 16.0024 18.6802C13.6172 18.6802 11.4686 18.3528 9.98823 17.8746C9.24805 17.6355 8.67339 17.3591 8.34925 17.1106C8.0251 16.8622 8.002 16.7225 8.002 16.694V9.67968L15.7108 12.4021C15.8979 12.4671 16.107 12.4671 16.2941 12.4021L30.2255 7.48511V12.0131C30.2188 12.4828 30.6447 12.9147 31.1144 12.9147C31.5841 12.9147 32.01 12.4828 32.0033 12.0131V6.23504C32.0065 5.86615 31.7546 5.50883 31.4061 5.38777L16.2941 0.0541437C16.0711 -0.0245611 15.896 -0.0112275 15.7108 0.0541437ZM16.0024 1.83202L28.4337 6.22115L16.0024 10.6242L3.55731 6.23504L16.0024 1.83202Z" fill="#9FB2BD"/>
</svg>
