<svg width="26" height="20" viewBox="0 0 26 20" fill="none" xmlns="http://www.w3.org/2000/svg">
<path d="M12.4973 13.3857H12.48L7.78265 11.167V17.459C9.44665 18.135 11.2146 18.4817 13 18.4817C16.3973 18.4817 19.812 17.2337 22.464 14.7204C22.5333 14.651 22.568 14.5644 22.568 14.4604V9.12169L13.5026 13.3857C13.1733 13.5244 12.8266 13.5244 12.4973 13.3857Z" fill="#A6B3C5"/>
<path d="M25.792 6.00167L22.568 4.47633L13.156 0.039C13.0693 -0.013 12.948 -0.013 12.8613 0.039L3.432 4.47633L0.208 6.00167C0.0866666 6.05367 0 6.175 0 6.31367C0 6.45233 0.0693333 6.57367 0.208 6.62567L3.432 8.151V14.4603C3.432 14.5643 3.46667 14.651 3.536 14.7203C4.212 15.3617 4.94 15.9163 5.68533 16.3843V18.5163C5.68533 18.863 5.96267 19.123 6.292 19.123C6.46533 19.123 6.62133 19.0537 6.72533 18.9497C6.82933 18.8457 6.89867 18.6897 6.89867 18.5163V9.78033L13 6.52167L13.8493 6.955L7.78267 10.1963L8.06 10.335L12.844 12.5883C12.896 12.6057 12.948 12.623 13 12.623C13.052 12.623 13.104 12.6057 13.156 12.5883L22.568 8.151L25.792 6.62567C25.9133 6.57367 26 6.45233 26 6.31367C26 6.175 25.9133 6.05367 25.792 6.00167Z" fill="#A6B3C5"/>
</svg>
