<svg width="82" height="10" viewBox="0 0 82 10" fill="none" xmlns="http://www.w3.org/2000/svg">
<path d="M82 4.95238C82 5.2381 81.9048 5.42857 81.7143 5.61905L77.7143 9.71429C77.3333 10.0952 76.7619 10.0952 76.381 9.71429C76 9.33333 76 8.7619 76.381 8.38095L79.7143 5.04762L76.2857 1.61905C75.9048 1.2381 75.9048 0.666666 76.2857 0.285714C76.6667 -0.095238 77.2381 -0.095238 77.619 0.285714L81.7143 4.38095C81.9048 4.47619 82 4.76191 82 4.95238Z" fill="#DDE1E7"/>
<path d="M0 5C0 4.44772 0.447715 4 1 4H79C79.5523 4 80 4.44772 80 5C80 5.55229 79.5523 6 79 6H0.999999C0.447714 6 0 5.55229 0 5Z" fill="#DDE1E7"/>
</svg>
