<svg width="24" height="24" viewBox="0 0 24 24" fill="none" xmlns="http://www.w3.org/2000/svg">
<path d="M13.1229 8.09407L14.1066 8.22899L13.3927 8.93013H13.3939C13.1725 9.1377 13.0745 9.44446 13.1356 9.74198L13.2959 10.7141L12.4229 10.2586H12.4218C12.1542 10.1122 11.829 10.1122 11.5615 10.2586L10.6885 10.7141L10.8488 9.74198H10.8477C10.9088 9.44446 10.8107 9.1377 10.5893 8.93013L9.8755 8.22899L10.8592 8.09407H10.8603C11.1578 8.04679 11.4138 7.85882 11.5488 7.58898L11.9916 6.69179L12.4344 7.59013V7.58898C12.5693 7.85883 12.8254 8.0468 13.1229 8.09407ZM11.9916 17.8362C9.62645 17.8362 7.35821 16.8964 5.68611 15.2242C4.01282 13.5509 3.07412 11.2825 3.07412 8.91752C3.07412 6.55254 4.01282 4.28409 5.68611 2.61199C7.35824 0.939852 9.62666 0 11.9916 0C14.3566 0 16.6251 0.939852 18.2972 2.61199C19.9704 4.28412 20.9091 6.55254 20.9091 8.91752C20.9068 11.2816 19.9658 13.5489 18.2937 15.221C16.6227 16.892 14.3557 17.8328 11.9916 17.8362ZM16.9123 7.30643C16.8074 6.97316 16.5202 6.72869 16.1743 6.6791L13.8736 6.33428L12.8162 4.20666C12.6432 3.91605 12.3295 3.73847 11.9916 3.73847C11.6537 3.73847 11.3401 3.91606 11.1671 4.20666L10.1096 6.33428L7.76059 6.6791C7.39042 6.71484 7.07905 6.9697 6.9695 7.32373C6.85879 7.67776 6.97181 8.06408 7.25549 8.30279L8.95299 9.90227L8.54706 12.2513C8.50324 12.52 8.57935 12.7944 8.75694 13.002C8.795 13.0493 8.84113 13.0908 8.89187 13.1243L9.01526 13.1981C9.27127 13.3226 9.56994 13.3226 9.8271 13.1981L11.9916 12.1164L14.095 13.2234C14.2277 13.2915 14.3764 13.3261 14.5252 13.3215C14.6566 13.3215 14.7858 13.2961 14.9069 13.2477L15.0303 13.1739C15.081 13.1393 15.126 13.0977 15.1652 13.0505C15.3428 12.844 15.4189 12.5696 15.3739 12.3009L14.968 9.95184L16.7278 8.30279C16.9849 8.03871 17.0576 7.64546 16.9123 7.30643ZM3.22164 15.1666L0.207183 18.783C-0.015384 19.062 -0.0626628 19.4426 0.0849454 19.7666C0.237165 20.0907 0.563521 20.2971 0.920998 20.296H3.68865V23.0636C3.69096 23.4545 3.93659 23.8028 4.30329 23.9366C4.40477 23.9562 4.50972 23.9562 4.6112 23.9366C4.88566 23.9331 5.14513 23.812 5.32504 23.6044L9.01524 19.2004V19.2016C6.68696 18.5419 4.64694 17.1212 3.22164 15.1666ZM23.7761 18.783L20.7628 15.1666H20.7617C19.3502 17.1351 17.3194 18.5731 14.9934 19.25L18.6836 23.654C18.8624 23.8616 19.1218 23.9827 19.3963 23.9862C19.4978 24.0046 19.6027 24.0046 19.7042 23.9862C20.0721 23.8524 20.3166 23.5041 20.3189 23.1132V20.296H23.0623C23.4198 20.2971 23.7461 20.0907 23.8984 19.7666C24.046 19.4426 23.9986 19.062 23.7761 18.783Z" fill="#A6B3C5"/>
</svg>
