<svg width="26" height="25" viewBox="0 0 26 25" fill="none" xmlns="http://www.w3.org/2000/svg">
<path d="M23.4533 7.09767C23.24 6.77674 23.08 6.45581 22.8667 6.13488C23.5067 5.76047 23.9333 5.06512 23.9333 4.26279C23.9333 3.08605 22.92 2.06977 21.7467 2.06977C20.9467 2.06977 20.2533 2.55116 19.88 3.19302C19.56 2.97907 19.24 2.76512 18.92 2.60465C19.5067 1.64186 20.5733 1 21.7467 1C23.56 1 25 2.44419 25 4.26279C25 5.49302 24.36 6.5093 23.4533 7.09767ZM23.9333 13.0349C23.9333 15.8698 22.8667 18.4372 21.1067 20.4163L23.7733 23.0907C23.9867 23.3047 23.9867 23.6256 23.7733 23.8395C23.56 24.0535 23.24 24.0535 23.0267 23.8395L20.3067 21.1651C18.3867 22.9302 15.8267 24 13 24C10.1733 24 7.61333 22.9302 5.69333 21.1651L2.97333 23.8395C2.76 24.0535 2.44 24.0535 2.22667 23.8395C2.01333 23.6256 2.01333 23.3047 2.22667 23.0907L4.89333 20.4163C3.13333 18.4372 2.06667 15.8698 2.06667 13.0349C2.06667 6.9907 6.97333 2.06977 13 2.06977C19.0267 2.06977 23.9333 6.9907 23.9333 13.0349ZM13 3.19302C7.56 3.19302 3.18667 7.57907 3.18667 13.0349C3.18667 18.4907 7.56 22.9302 13 22.9302C18.44 22.9302 22.8133 18.4907 22.8133 13.0349C22.8133 7.57907 18.44 3.19302 13 3.19302ZM13.5333 15.1744V20.1488C13.5333 20.4698 13.32 20.7372 13 20.7372C12.68 20.7372 12.4667 20.4698 12.4667 20.1488V15.1744C11.5067 14.907 10.8133 14.0512 10.8133 13.0349C10.8133 12.6605 10.92 12.2326 11.1333 11.9116L8.78667 9.55814C8.57333 9.34419 8.57333 9.02326 8.78667 8.8093C9 8.59535 9.32 8.59535 9.53333 8.8093L11.88 11.1628C12.2 11.0023 12.5733 10.8419 13 10.8419C14.2267 10.8419 15.1867 11.8581 15.1867 13.0349C15.1867 14.0512 14.4933 14.907 13.5333 15.1744ZM13 11.9651C12.4133 11.9651 11.9333 12.4465 11.9333 13.0349C11.9333 13.6767 12.4133 14.1581 13 14.1581C13.5867 14.1581 14.0667 13.6767 14.0667 13.0349C14.0667 12.4465 13.5867 11.9651 13 11.9651ZM4.25333 2.06977C3.08 2.06977 2.06667 3.08605 2.06667 4.26279C2.06667 5.06512 2.49333 5.76047 3.13333 6.13488C2.92 6.45581 2.76 6.77674 2.54667 7.09767C1.64 6.5093 1 5.49302 1 4.26279C1 2.44419 2.44 1 4.25333 1C5.42667 1 6.49333 1.64186 7.08 2.60465C6.76 2.76512 6.44 2.97907 6.12 3.19302C5.74667 2.55116 5.05333 2.06977 4.25333 2.06977Z" fill="#9E759B" stroke="#9E759B" stroke-width="0.5"/>
</svg>
