<svg width="10" height="10" viewBox="0 0 10 10" fill="none" xmlns="http://www.w3.org/2000/svg">
<path d="M8.69694 0C8.95456 1.12612e-08 9.20228 0.0990871 9.40046 0.287353C9.7869 0.673792 9.7869 1.30795 9.40046 1.69439L6.39812 4.70664L9.41037 7.71889C9.7968 8.10533 9.7968 8.73948 9.41037 9.12592C9.02393 9.51236 8.38977 9.51236 8.00333 9.12592L4.28756 5.41016C4.0993 5.22189 4.00021 4.97417 4.00021 4.70664C4.00021 4.4391 4.1092 4.19138 4.28756 4.00312L7.99342 0.287353C8.19159 0.0990871 8.44922 -1.08281e-08 8.69694 0Z" fill="#727B87"/>
<path d="M1.00326 9.41576C0.74563 9.41576 0.497913 9.31667 0.299738 9.1284C-0.0867013 8.74196 -0.0867012 8.10781 0.299738 7.72137L3.30208 4.70912L0.28983 1.69687C-0.0966099 1.31043 -0.0966099 0.676274 0.28983 0.289834C0.67627 -0.0966056 1.31043 -0.0966056 1.69687 0.289834L5.41263 4.0056C5.6009 4.19387 5.69999 4.44158 5.69999 4.70912C5.69999 4.97665 5.59099 5.22437 5.41263 5.41264L1.70678 9.1284C1.5086 9.31667 1.25097 9.41576 1.00326 9.41576Z" fill="#727B87"/>
</svg>
