<svg width="29" height="25" viewBox="0 0 29 25" fill="none" xmlns="http://www.w3.org/2000/svg">
<path d="M4.66744 1.58377C4.31313 1.20584 3.85084 1 3.3683 1C2.36273 1 1.52251 1.90771 1.45165 3.06513L1.0096 10.3403C0.942114 11.4269 1.23231 12.4864 1.81945 13.3199L5.78436 18.945C5.92946 19.1542 6.01045 19.4208 6.01045 19.7042V20.4837C5.60214 20.7031 5.32207 21.1316 5.32207 21.6276V23.2136C5.32207 23.9323 5.90921 24.5195 6.62796 24.5195H12.7019C13.4206 24.5195 14.0077 23.9323 14.0077 23.2136V21.6276C14.0077 21.1316 13.7277 20.7031 13.3194 20.4837V17.99C13.3194 15.9789 12.6715 14.0859 11.4938 12.6585L7.22185 7.47208C6.86079 7.03341 6.36813 6.79045 5.84173 6.79045C5.5684 6.79045 5.30857 6.85456 5.06899 6.97604L5.28833 3.38232C5.32882 2.70069 5.10611 2.04606 4.67081 1.58377H4.66744ZM12.9954 21.6276V23.2136C12.9954 23.3756 12.8638 23.5072 12.7019 23.5072H6.62796C6.46599 23.5072 6.33439 23.3756 6.33439 23.2136V21.6276C6.33439 21.4657 6.46599 21.3341 6.62796 21.3341H12.7019C12.8638 21.3341 12.9954 21.4657 12.9954 21.6276ZM5.24108 8.11321C5.57177 7.70828 6.10493 7.70828 6.43899 8.11321L10.711 13.2996C11.7233 14.5279 12.3037 16.2387 12.3037 17.99V20.3217H7.02276V19.7042C7.02276 19.2149 6.87766 18.7392 6.61109 18.3612L2.64618 12.7361C2.19739 12.0984 1.96793 11.2446 2.01854 10.401L2.46059 3.12586C2.49771 2.5016 2.89588 2.00894 3.36492 2.00894C3.62475 2.00894 3.81372 2.15404 3.92845 2.27552C4.16803 2.5286 4.29626 2.92003 4.27264 3.3182L3.94532 8.7341C3.88121 9.36511 4.0533 10.0197 4.45823 10.5158L6.69882 13.2389C6.87766 13.4549 7.19486 13.4852 7.41082 13.3064C7.62678 13.1276 7.65715 12.8104 7.4783 12.5944L5.23771 9.87127C4.84628 9.39548 4.84628 8.589 5.23771 8.11321H5.24108Z" fill="#9FB2BD"/>
<path d="M21.7789 7.4687L17.507 12.6551C16.3293 14.0825 15.6814 15.9789 15.6814 17.99V20.4837C15.2731 20.7031 14.993 21.1316 14.993 21.6276V23.2136C14.993 23.9323 15.5802 24.5195 16.2989 24.5195H22.3728C23.0916 24.5195 23.6787 23.9323 23.6787 23.2136V21.6276C23.6787 21.1316 23.3986 20.7031 22.9903 20.4837V19.7042C22.9903 19.4242 23.0713 19.1542 23.2164 18.945L27.1813 13.3199C27.7685 12.4864 28.0553 11.4269 27.9912 10.3403L27.5491 3.06513C27.4783 1.90771 26.638 1 25.6325 1C25.1499 1 24.6876 1.20584 24.3333 1.58377C23.9014 2.04269 23.6753 2.70069 23.7158 3.38232L23.9352 6.97604C23.6956 6.85456 23.4324 6.79045 23.1624 6.79045C22.636 6.79045 22.1434 7.03341 21.7823 7.47208L21.7789 7.4687ZM22.6664 23.2136C22.6664 23.3756 22.5348 23.5072 22.3728 23.5072H16.2989C16.1369 23.5072 16.0053 23.3756 16.0053 23.2136V21.6276C16.0053 21.4657 16.1369 21.3341 16.2989 21.3341H22.3728C22.5348 21.3341 22.6664 21.4657 22.6664 21.6276V23.2136ZM23.7597 8.11321C24.1511 8.589 24.1511 9.39548 23.7597 9.87127L21.5191 12.5944C21.3403 12.8104 21.374 13.1276 21.5866 13.3064C21.8025 13.4819 22.1197 13.4515 22.2986 13.2389L24.5392 10.5158C24.9475 10.0231 25.1162 9.36511 25.0521 8.73747L24.7248 3.32158C24.7011 2.9234 24.8294 2.53535 25.069 2.27889C25.1837 2.15742 25.3727 2.01232 25.6325 2.01232C26.1015 2.01232 26.4997 2.5016 26.5368 3.12924L26.9789 10.4044C27.0295 11.2514 26.8 12.1017 26.3512 12.7395L22.3863 18.3646C22.1197 18.7425 21.9746 19.2183 21.9746 19.7076V20.3251H16.6937V17.9934C16.6937 16.2421 17.2741 14.5347 18.2898 13.303L22.5618 8.11659C22.8958 7.71166 23.4256 7.71166 23.7597 8.11659V8.11321Z" fill="#9FB2BD"/>
<path d="M4.66744 1.58377C4.31313 1.20584 3.85084 1 3.3683 1C2.36273 1 1.52251 1.90771 1.45165 3.06513L1.0096 10.3403C0.942114 11.4269 1.23231 12.4864 1.81945 13.3199L5.78436 18.945C5.92946 19.1542 6.01045 19.4208 6.01045 19.7042V20.4837C5.60214 20.7031 5.32207 21.1316 5.32207 21.6276V23.2136C5.32207 23.9323 5.90921 24.5195 6.62796 24.5195H12.7019C13.4206 24.5195 14.0077 23.9323 14.0077 23.2136V21.6276C14.0077 21.1316 13.7277 20.7031 13.3194 20.4837V17.99C13.3194 15.9789 12.6715 14.0859 11.4938 12.6585L7.22185 7.47208C6.86079 7.03341 6.36813 6.79045 5.84173 6.79045C5.5684 6.79045 5.30857 6.85456 5.06899 6.97604L5.28833 3.38232C5.32882 2.70069 5.10611 2.04606 4.67081 1.58377H4.66744ZM12.9954 21.6276V23.2136C12.9954 23.3756 12.8638 23.5072 12.7019 23.5072H6.62796C6.46599 23.5072 6.33439 23.3756 6.33439 23.2136V21.6276C6.33439 21.4657 6.46599 21.3341 6.62796 21.3341H12.7019C12.8638 21.3341 12.9954 21.4657 12.9954 21.6276ZM5.24108 8.11321C5.57177 7.70828 6.10493 7.70828 6.43899 8.11321L10.711 13.2996C11.7233 14.5279 12.3037 16.2387 12.3037 17.99V20.3217H7.02276V19.7042C7.02276 19.2149 6.87766 18.7392 6.61109 18.3612L2.64618 12.7361C2.19739 12.0984 1.96793 11.2446 2.01854 10.401L2.46059 3.12586C2.49771 2.5016 2.89588 2.00894 3.36492 2.00894C3.62475 2.00894 3.81372 2.15404 3.92845 2.27552C4.16803 2.5286 4.29626 2.92003 4.27264 3.3182L3.94532 8.7341C3.88121 9.36511 4.0533 10.0197 4.45823 10.5158L6.69882 13.2389C6.87766 13.4549 7.19486 13.4852 7.41082 13.3064C7.62678 13.1276 7.65715 12.8104 7.4783 12.5944L5.23771 9.87127C4.84628 9.39548 4.84628 8.589 5.23771 8.11321H5.24108Z" stroke="#9FB2BD" stroke-width="0.4"/>
<path d="M21.7789 7.4687L17.507 12.6551C16.3293 14.0825 15.6814 15.9789 15.6814 17.99V20.4837C15.2731 20.7031 14.993 21.1316 14.993 21.6276V23.2136C14.993 23.9323 15.5802 24.5195 16.2989 24.5195H22.3728C23.0916 24.5195 23.6787 23.9323 23.6787 23.2136V21.6276C23.6787 21.1316 23.3986 20.7031 22.9903 20.4837V19.7042C22.9903 19.4242 23.0713 19.1542 23.2164 18.945L27.1813 13.3199C27.7685 12.4864 28.0553 11.4269 27.9912 10.3403L27.5491 3.06513C27.4783 1.90771 26.638 1 25.6325 1C25.1499 1 24.6876 1.20584 24.3333 1.58377C23.9014 2.04269 23.6753 2.70069 23.7158 3.38232L23.9352 6.97604C23.6956 6.85456 23.4324 6.79045 23.1624 6.79045C22.636 6.79045 22.1434 7.03341 21.7823 7.47208L21.7789 7.4687ZM22.6664 23.2136C22.6664 23.3756 22.5348 23.5072 22.3728 23.5072H16.2989C16.1369 23.5072 16.0053 23.3756 16.0053 23.2136V21.6276C16.0053 21.4657 16.1369 21.3341 16.2989 21.3341H22.3728C22.5348 21.3341 22.6664 21.4657 22.6664 21.6276V23.2136ZM23.7597 8.11321C24.1511 8.589 24.1511 9.39548 23.7597 9.87127L21.5191 12.5944C21.3403 12.8104 21.374 13.1276 21.5866 13.3064C21.8025 13.4819 22.1197 13.4515 22.2986 13.2389L24.5392 10.5158C24.9475 10.0231 25.1162 9.36511 25.0521 8.73747L24.7248 3.32158C24.7011 2.9234 24.8294 2.53535 25.069 2.27889C25.1837 2.15742 25.3727 2.01232 25.6325 2.01232C26.1015 2.01232 26.4997 2.5016 26.5368 3.12924L26.9789 10.4044C27.0295 11.2514 26.8 12.1017 26.3512 12.7395L22.3863 18.3646C22.1197 18.7425 21.9746 19.2183 21.9746 19.7076V20.3251H16.6937V17.9934C16.6937 16.2421 17.2741 14.5347 18.2898 13.303L22.5618 8.11659C22.8958 7.71166 23.4256 7.71166 23.7597 8.11659V8.11321Z" stroke="#9FB2BD" stroke-width="0.4"/>
</svg>
