<svg width="30" height="26" viewBox="0 0 30 26" fill="none" xmlns="http://www.w3.org/2000/svg">
<path d="M28.7926 11.7213L23.1509 23.6144C22.6164 24.8447 21.1318 25.3134 19.9441 24.7861L16.6185 23.2628C16.3809 23.2042 16.2028 22.9699 16.2028 22.677C16.2028 22.384 16.4997 22.0911 16.856 22.0911C16.9154 22.0911 17.0342 22.1497 17.0935 22.2083L17.1529 22.1497L20.4785 23.6729C21.0724 23.9659 21.785 23.7315 22.082 23.1457L27.6642 11.2526C27.9612 10.6668 27.7236 9.96372 27.0704 9.67079L22.9134 7.73744C22.9134 7.73744 22.3195 7.50309 22.3195 7.09299C22.3195 6.74147 22.557 6.44854 22.9134 6.44854C23.0321 6.44854 23.0915 6.50712 23.2103 6.56571L27.6048 8.55765C28.7926 9.14351 29.327 10.5496 28.7926 11.7213ZM18.0437 20.2163H3.43482C2.12833 20.2163 1 19.1618 1 17.8143V3.40204C1 2.11314 2.12833 1 3.43482 1H18.0437C19.4096 1 20.4785 2.11314 20.4785 3.40204V17.8143C20.4785 19.1618 19.4096 20.2163 18.0437 20.2163ZM11.3925 14.1819V13.5961L12.0458 13.3031C12.4021 13.0688 13.2929 12.2486 13.2929 12.2486L13.3522 12.1314C13.5304 11.194 13.7679 9.72937 13.7679 9.2021C13.7679 7.26874 12.8772 6.38995 10.7393 6.38995C8.66077 6.38995 7.71059 7.26874 7.71059 9.2021C7.71059 9.72937 8.00752 11.2526 8.18568 12.0728V12.2486C8.42322 12.4243 8.9577 12.9516 9.43278 13.3031L10.1454 13.5961V14.1819V15.4123C10.1454 16.4082 9.49217 16.6426 8.542 16.6426C6.46349 16.7597 6.16656 17.4042 6.10718 17.4628C6.04779 17.58 5.92902 18.8103 5.86964 18.986H15.6089C15.5495 18.8103 15.4901 17.58 15.4307 17.4628C15.3714 17.4628 15.1338 16.7597 12.9959 16.6426C12.0458 16.6426 11.3925 16.4082 11.3925 15.4123C11.3925 15.4123 11.3925 14.1234 11.3925 14.1819ZM19.2908 3.40204C19.2908 2.75759 18.7564 2.23031 18.0437 2.23031H3.43482C2.78157 2.23031 2.2471 2.75759 2.2471 3.40204V17.8143C2.2471 18.4587 2.78157 18.986 3.43482 18.986H4.56315C4.74131 18.6345 4.86008 17.1113 5.09762 16.8183C5.09762 16.8183 5.45393 15.588 8.48261 15.4708C8.77954 15.4708 8.89831 15.2951 8.89831 15.0021C8.89831 14.7678 8.89831 14.592 8.89831 14.592C8.89831 14.5335 8.89831 14.4749 8.89831 14.4163C8.66077 14.1819 8.60138 14.1234 8.1263 13.7132C8.1263 13.7132 7.11674 13.0688 6.99797 12.3658C6.99797 12.3658 6.52288 10.0809 6.52288 9.2021C6.52288 7.15157 7.47305 5.21822 10.7393 5.21822C14.0055 5.21822 15.015 7.15157 15.015 9.2021C15.015 10.0223 14.54 12.3658 14.54 12.3658C14.4212 13.0688 13.4116 13.7132 13.4116 13.7132C12.9959 14.1234 12.8178 14.2991 12.5802 14.4163C12.5802 14.4749 12.5802 14.5335 12.5802 14.592C12.5802 14.592 12.5802 14.7678 12.5802 15.0021C12.5802 15.2951 12.699 15.4708 12.9959 15.4708C16.0246 15.588 16.4403 16.8183 16.4403 16.8183C16.6185 17.1113 16.7372 18.6345 16.9748 18.986H18.0437C18.7564 18.986 19.2908 18.4587 19.2908 17.8143V3.40204Z" fill="#9E759B" stroke="#9E759B" stroke-width="0.5"/>
</svg>
