<svg width="22" height="19" viewBox="0 0 22 19" fill="none" xmlns="http://www.w3.org/2000/svg">
<path d="M20.8518 8.59426L16.8221 17.0185C16.4403 17.89 15.3798 18.222 14.5315 17.8485L12.156 16.7695C11.9864 16.728 11.8591 16.562 11.8591 16.3545C11.8591 16.147 12.0712 15.9395 12.3257 15.9395C12.3681 15.9395 12.453 15.981 12.4954 16.0225L12.5378 15.981L14.9132 17.06C15.3374 17.2675 15.8464 17.1015 16.0585 16.6865L20.0459 8.26227C20.258 7.84729 20.0883 7.3493 19.6217 7.14181L16.6524 5.77235C16.6524 5.77235 16.2282 5.60636 16.2282 5.31586C16.2282 5.06687 16.3979 4.85938 16.6524 4.85938C16.7372 4.85938 16.7797 4.90088 16.8645 4.94238L20.0035 6.35333C20.8518 6.76832 21.2336 7.76429 20.8518 8.59426ZM13.1741 14.6116H2.73916C1.80595 14.6116 1 13.8646 1 12.9101V2.70145C1 1.78848 1.80595 1 2.73916 1H13.1741C14.1497 1 14.9132 1.78848 14.9132 2.70145V12.9101C14.9132 13.8646 14.1497 14.6116 13.1741 14.6116ZM8.42322 10.3372V9.92222L8.88983 9.71473C9.14434 9.54873 9.78061 8.96775 9.78061 8.96775L9.82303 8.88475C9.95029 8.22077 10.12 7.18331 10.12 6.80982C10.12 5.44036 9.48369 4.81788 7.95662 4.81788C6.47198 4.81788 5.79328 5.44036 5.79328 6.80982C5.79328 7.18331 6.00537 8.26227 6.13263 8.84325V8.96775C6.3023 9.09225 6.68407 9.46573 7.02342 9.71473L7.53244 9.92222V10.3372V11.2087C7.53244 11.9142 7.06583 12.0802 6.38714 12.0802C4.9025 12.1631 4.6904 12.6196 4.64798 12.6611C4.60557 12.7441 4.52073 13.6156 4.47831 13.7401H11.4349C11.3925 13.6156 11.3501 12.7441 11.3077 12.6611C11.2653 12.6611 11.0956 12.1631 9.56852 12.0802C8.88983 12.0802 8.42322 11.9142 8.42322 11.2087C8.42322 11.2087 8.42322 10.2957 8.42322 10.3372ZM14.0649 2.70145C14.0649 2.24496 13.6831 1.87147 13.1741 1.87147H2.73916C2.27255 1.87147 1.89079 2.24496 1.89079 2.70145V12.9101C1.89079 13.3666 2.27255 13.7401 2.73916 13.7401H3.54511C3.67236 13.4911 3.7572 12.4121 3.92687 12.2046C3.92687 12.2046 4.18138 11.3332 6.34472 11.2502C6.55681 11.2502 6.64165 11.1257 6.64165 10.9182C6.64165 10.7522 6.64165 10.6277 6.64165 10.6277C6.64165 10.5862 6.64165 10.5447 6.64165 10.5032C6.47198 10.3372 6.42956 10.2957 6.09021 10.0052C6.09021 10.0052 5.3691 9.54873 5.28426 9.05075C5.28426 9.05075 4.94491 7.4323 4.94491 6.80982C4.94491 5.35736 5.62361 3.98791 7.95662 3.98791C10.2896 3.98791 11.0107 5.35736 11.0107 6.80982C11.0107 7.3908 10.6714 9.05075 10.6714 9.05075C10.5866 9.54873 9.86545 10.0052 9.86545 10.0052C9.56852 10.2957 9.44127 10.4202 9.27159 10.5032C9.27159 10.5447 9.27159 10.5862 9.27159 10.6277C9.27159 10.6277 9.27159 10.7522 9.27159 10.9182C9.27159 11.1257 9.35643 11.2502 9.56852 11.2502C11.7319 11.3332 12.0288 12.2046 12.0288 12.2046C12.156 12.4121 12.2409 13.4911 12.4106 13.7401H13.1741C13.6831 13.7401 14.0649 13.3666 14.0649 12.9101V2.70145Z" fill="#9E759B" stroke="#9E759B" stroke-width="0.5"/>
</svg>
