<svg width="23" height="37" viewBox="0 0 23 37" fill="none" xmlns="http://www.w3.org/2000/svg">
<path d="M22.538 13.8798C23.9722 7.99826 20.3445 2.04277 14.4525 0.605992C8.56042 -0.830787 2.59849 2.78628 1.16426 8.66786C-0.0754395 13.7517 2.46703 18.8865 6.98524 21.118L6.21622 24.2717L5.45435 24.0859C5.11068 24.0021 4.76573 24.2114 4.68208 24.5544L2.87997 31.9446C2.38207 33.9864 3.64142 36.0539 5.68687 36.5527C7.73232 37.0515 9.802 35.7958 10.2999 33.754L12.102 26.3638C12.1857 26.0207 11.9758 25.6761 11.6321 25.5923L10.8702 25.4065L11.6393 22.2529C16.6765 22.3558 21.2973 18.9678 22.538 13.8798ZM2.40644 8.97077C3.67436 3.77117 8.94125 0.575779 14.1501 1.84596C19.359 3.11614 22.5637 8.37734 21.2958 13.5769C20.1145 18.4211 15.4579 21.5244 10.619 20.8962L8.51967 20.3843C3.93054 18.7135 1.22933 13.8159 2.41058 8.97178L2.40644 8.97077ZM9.05773 33.4511C8.72613 34.8109 7.35149 35.6449 5.98924 35.3127C4.62698 34.9805 3.79055 33.6074 4.12215 32.2475L5.77307 25.4773L10.7086 26.6808L9.05773 33.4511ZM9.62806 25.1036L7.46253 24.5756L8.18217 21.6245C8.52918 21.7485 8.88538 21.8529 9.2539 21.9427C9.62241 22.0326 9.98768 22.0998 10.3518 22.1535L9.6322 25.1047L9.62806 25.1036ZM9.96435 19.0113C14.2374 20.0532 18.558 17.4285 19.5971 13.1671C20.6363 8.90574 18.0048 4.5857 13.7359 3.54472C9.46692 2.50373 5.14321 5.12338 4.10307 9.38887C3.06293 13.6544 5.6954 17.9703 9.96435 19.0113ZM13.4345 4.78055C17.0203 5.65494 19.2288 9.28069 18.356 12.8601C17.4831 16.4394 13.8535 18.6415 10.2677 17.7672C6.68198 16.8928 4.47342 13.267 5.34626 9.68764C6.21909 6.10827 9.84876 3.90617 13.4345 4.78055ZM10.5219 12.929L12.2651 13.3541C12.6087 13.4379 12.9537 13.2286 13.0373 12.8856L14.4565 7.06599C14.5401 6.72293 14.3302 6.37836 13.9865 6.29455L12.2434 5.86948C11.8997 5.78567 11.5547 5.99495 11.4711 6.33801L10.052 12.1576C9.96833 12.5006 10.1782 12.8452 10.5219 12.929ZM12.5621 7.2609L13.0631 7.38307L11.9464 11.9627L11.4453 11.8405L12.5621 7.2609ZM10.5247 16.7132C11.3777 16.9212 12.2426 16.3964 12.4503 15.545C12.6579 14.6935 12.1316 13.8295 11.2786 13.6215C10.4257 13.4135 9.56073 13.9383 9.35311 14.7897C9.14548 15.6412 9.67177 16.5052 10.5247 16.7132ZM10.9763 14.8615C11.146 14.9029 11.2494 15.0726 11.2081 15.2421C11.1668 15.4115 10.9969 15.5146 10.8271 15.4732C10.6573 15.4318 10.554 15.2621 10.5953 15.0926C10.6366 14.9232 10.8065 14.8201 10.9763 14.8615Z" fill="#5B88CD"/>
</svg>
