<svg width="31" height="31" viewBox="0 0 31 31" fill="none" xmlns="http://www.w3.org/2000/svg">
<path d="M17.3015 4.10751C16.9637 4.05525 16.7316 3.73807 16.7838 3.40023C16.8361 3.0624 17.1533 2.83028 17.4911 2.88251C20.2243 3.31029 22.6683 4.60211 24.5337 6.46743C26.3991 8.33274 27.6908 10.7769 28.1186 13.51C28.1709 13.8478 27.9388 14.165 27.6009 14.2173C27.2631 14.2695 26.9459 14.0374 26.8936 13.6996C26.5084 11.2399 25.3405 9.03417 23.6537 7.34734C21.9669 5.65932 19.7612 4.49272 17.3015 4.10751ZM15.5005 10.8863C16.7741 10.8863 17.9286 11.4028 18.7634 12.2377C19.5983 13.0726 20.1148 14.227 20.1148 15.5006C20.1148 16.7741 19.5983 17.9287 18.7634 18.7635C17.9285 19.5984 16.774 20.1149 15.5005 20.1149C14.2269 20.1149 13.0724 19.5984 12.2376 18.7635C11.4027 17.9286 10.8861 16.7741 10.8861 15.5006C10.8861 14.227 11.4027 13.0725 12.2376 12.2377C13.0724 11.4028 14.2269 10.8863 15.5005 10.8863ZM17.8836 13.1175C17.2748 12.5087 16.4314 12.1307 15.5005 12.1307C14.5696 12.1307 13.7262 12.5086 13.1173 13.1175C12.5085 13.7263 12.1305 14.5698 12.1305 15.5007C12.1305 16.4316 12.5084 17.275 13.1173 17.8838C13.7262 18.4927 14.5696 18.8706 15.5005 18.8706C16.4314 18.8706 17.2748 18.4927 17.8836 17.8838C18.4925 17.275 18.8705 16.4316 18.8705 15.5007C18.8705 14.5698 18.4925 13.7264 17.8836 13.1175ZM16.1227 6.18817C18.4512 6.3413 20.5476 7.34998 22.0994 8.90189C23.6514 10.4538 24.66 12.5503 24.8132 14.8786H29.3778C29.7217 14.8786 30 15.1569 30 15.5008C30 15.8447 29.7217 16.123 29.3778 16.123H28.261C28.1042 19.4018 26.709 22.3586 24.5338 24.5339C22.3585 26.7092 19.4018 28.1032 16.123 28.261V29.3778C16.123 29.7217 15.8447 30 15.5008 30C15.1568 30 14.8785 29.7217 14.8785 29.3778V24.8095C12.5488 24.6563 10.4524 23.6489 8.90179 22.0982L8.86898 22.063C7.33651 20.5135 6.34121 18.4317 6.18808 16.1214H1.62222C1.27829 16.1214 1 15.8431 1 15.4992C1 15.1552 1.2783 14.877 1.62222 14.877H2.73905C2.89582 11.5969 4.29096 8.6414 6.46615 6.46613C8.6415 4.29079 11.597 2.89677 14.877 2.73904V1.62222C14.877 1.27829 15.1553 1 15.4992 1C15.8432 1 16.1215 1.2783 16.1215 1.62222V6.18681L16.1227 6.18817ZM23.5651 14.8787C23.4144 12.893 22.5467 11.1077 21.2196 9.7818C19.8937 8.45594 18.1085 7.58823 16.1227 7.43631V8.51549C16.1227 8.85942 15.8444 9.13771 15.5004 9.13771C15.1565 9.13771 14.8782 8.85941 14.8782 8.51549V3.98729C11.9421 4.14407 9.29659 5.39824 7.34717 7.34758C5.39776 9.29693 4.14367 11.9414 3.98687 14.8786H8.51508C8.85901 14.8786 9.1373 15.1569 9.1373 15.5008C9.1373 15.8447 8.85901 16.123 8.51508 16.123H7.43715C7.58663 18.0967 8.4434 19.871 9.75346 21.1919L9.78262 21.2199C11.1097 22.547 12.895 23.4159 14.8795 23.5678V22.4862C14.8795 22.1423 15.1578 21.864 15.5018 21.864C15.8457 21.864 16.124 22.1423 16.124 22.4862V27.0144C19.0601 26.8576 21.7056 25.6035 23.655 23.6541C25.6043 21.7048 26.8585 19.059 27.0153 16.1231H22.4871C22.1432 16.1231 21.8649 15.8448 21.8649 15.5009C21.8649 15.1569 22.1432 14.8786 22.4871 14.8786H23.5663L23.5651 14.8787ZM23.3986 17.2631C23.4727 16.9289 23.8033 16.7174 24.1375 16.7916C24.4717 16.8657 24.6831 17.1962 24.609 17.5304C24.2177 19.2926 23.3281 20.8677 22.0982 22.0988C20.8696 23.3298 19.2946 24.2182 17.5299 24.6095C17.1957 24.6836 16.8651 24.4722 16.791 24.138C16.7169 23.8038 16.9283 23.4732 17.2625 23.3991C18.7865 23.0613 20.1512 22.2896 21.2195 21.2201C22.289 20.1531 23.0608 18.7883 23.3986 17.2631ZM7.60133 13.7388C7.5272 14.073 7.19664 14.2845 6.86244 14.2103C6.52825 14.1362 6.31679 13.8057 6.39093 13.4715C6.78224 11.7069 7.67062 10.1308 8.90047 8.90095L8.9345 8.86936C10.1607 7.65531 11.7235 6.77908 13.4686 6.39143C13.8028 6.3173 14.1334 6.52876 14.2075 6.86295C14.2816 7.19714 14.0702 7.5277 13.736 7.60184C12.2242 7.93724 10.8704 8.698 9.80697 9.75042L9.77902 9.7808C8.70958 10.8502 7.93787 12.215 7.60004 13.739L7.60133 13.7388ZM13.6985 26.8941C14.0363 26.9463 14.2684 27.2635 14.2162 27.6013C14.1639 27.9392 13.8468 28.1713 13.5089 28.1191C10.7757 27.6913 8.33173 26.3995 6.46631 24.5342C4.60086 22.6687 3.30791 20.2247 2.88138 17.4916C2.82912 17.1537 3.06124 16.8365 3.3991 16.7843C3.73694 16.732 4.05414 16.9642 4.10638 17.302C4.49163 19.7617 5.65829 21.9674 7.34628 23.6542C9.03309 25.341 11.2388 26.5089 13.6985 26.8941Z" fill="#9FB2BD" stroke="#9FB2BD" stroke-width="0.4"/>
</svg>
