<svg width="19" height="22" viewBox="0 0 19 22" fill="none" xmlns="http://www.w3.org/2000/svg">
<path d="M10.0562 3.6982C11.8536 3.8698 13.5014 4.5628 14.8456 5.621L15.4198 5.0468L14.9886 4.6156C14.806 4.433 14.806 4.1338 14.9886 3.9512L15.6156 3.3242C15.7982 3.1416 16.0974 3.1416 16.28 3.3242L18.095 5.1392C18.2776 5.3218 18.2776 5.621 18.095 5.8036L17.468 6.4306C17.2854 6.6132 16.9862 6.6132 16.8036 6.4306L16.3724 5.9994L15.84 6.5318C17.3932 8.1752 18.3458 10.3906 18.3458 12.8304C18.3458 15.3626 17.3184 17.655 15.6596 19.316C13.9964 20.9726 11.704 22 9.1718 22C6.6396 22 4.3472 20.9726 2.6862 19.3138C1.0274 17.6528 0 15.3604 0 12.8282C0 10.3906 0.9526 8.173 2.5058 6.5296L1.9734 5.9972L1.5422 6.4284C1.3596 6.611 1.0604 6.611 0.8778 6.4284L0.2508 5.8014C0.0681999 5.6188 0.0681999 5.3196 0.2508 5.137L2.0658 3.322C2.2484 3.1394 2.5476 3.1394 2.7302 3.322L3.3572 3.949C3.5398 4.1316 3.5398 4.4308 3.3572 4.6134L2.926 5.0446L3.5002 5.6188C4.8444 4.5584 6.49 3.8676 8.2896 3.696V2.4024H7.4866C7.1456 2.4024 6.8684 2.123 6.8684 1.7842V0.6182C6.8684 0.2772 7.1478 0 7.4866 0H10.8636C11.2046 0 11.4818 0.2794 11.4818 0.6182V1.7842C11.4818 2.1252 11.2024 2.4024 10.8636 2.4024H10.0606V3.6982H10.0562ZM14.4892 15.8994L9.1718 12.8282V6.688C5.7816 6.688 3.0316 9.438 3.0316 12.8282C3.0316 16.2184 5.7816 18.9684 9.1718 18.9684C11.4444 18.9684 13.4288 17.7342 14.4892 15.8994ZM14.5222 7.4778C13.1538 6.1072 11.2618 5.2602 9.1718 5.2602C7.0818 5.2602 5.1898 6.1072 3.8214 7.4778C2.4508 8.8462 1.6038 10.7382 1.6038 12.8282C1.6038 14.9182 2.4508 16.8102 3.8214 18.1786C5.1898 19.5492 7.0818 20.3962 9.1718 20.3962C11.2618 20.3962 13.1538 19.5492 14.5222 18.1786C15.8928 16.8102 16.7398 14.9182 16.7398 12.8282C16.7398 10.7382 15.8928 8.8462 14.5222 7.4778Z" fill="#A6B3C5"/>
</svg>
