<svg width="27" height="22" viewBox="0 0 27 22" fill="none" xmlns="http://www.w3.org/2000/svg">
<path d="M3.15952 11.3229C2.98882 11.266 2.81813 11.2375 2.64743 11.2375C1.19653 11.1806 0.00166126 12.3755 0.00166126 13.8264C0.00166126 14.9075 0.00166126 16.0739 0.00166126 16.8136C-0.0267879 17.2119 0.314602 17.5249 0.684441 17.5249H2.50519C2.53364 17.5249 2.56209 17.4964 2.56209 17.468V13.5988C2.56209 12.8307 2.78968 12.091 3.15952 11.4082C3.21642 11.3798 3.18797 11.3229 3.15952 11.3229Z" fill="#A6B3C5"/>
<path d="M8.0244 10.0994C7.71146 10.0141 7.39852 9.9572 7.05713 9.9572C5.06569 9.9572 3.41564 11.5788 3.41564 13.5987V18.5774C3.41564 18.9757 3.72858 19.2886 4.12687 19.2886H7.31317C7.34162 19.2886 7.37007 19.2602 7.37007 19.2317V12.8875C7.37007 11.9487 7.62611 11.0383 8.05285 10.1848C8.0813 10.1563 8.05285 10.0994 8.0244 10.0994Z" fill="#A6B3C5"/>
<path d="M19.8877 9.9572C19.5747 9.9572 19.2618 10.0141 18.9204 10.0994C18.8919 10.0994 18.8635 10.1563 18.8919 10.1848C19.3187 11.0098 19.5463 11.9487 19.5463 12.8875V19.2317C19.5463 19.2602 19.5747 19.2886 19.6032 19.2886H22.8179C23.2162 19.2886 23.5292 18.9757 23.5292 18.5774V13.5987C23.5576 11.6073 21.936 9.9572 19.8877 9.9572Z" fill="#A6B3C5"/>
<path d="M24.4396 11.2373C24.2404 11.2373 24.0128 11.2942 23.8137 11.3227C23.7852 11.3227 23.7568 11.3796 23.7852 11.408C24.1551 12.0624 24.3827 12.8305 24.3827 13.5986V17.4678C24.3827 17.4962 24.4111 17.5247 24.4396 17.5247H26.2888C26.6871 17.5247 27 17.2117 27 16.8134V13.7693C26.9715 12.3753 25.862 11.2373 24.4396 11.2373Z" fill="#A6B3C5"/>
<path d="M19.8876 9.1038C21.1446 9.1038 22.1636 8.08482 22.1636 6.82784C22.1636 5.57087 21.1446 4.55189 19.8876 4.55189C18.6307 4.55189 17.6117 5.57087 17.6117 6.82784C17.6117 8.08482 18.6307 9.1038 19.8876 9.1038Z" fill="#A6B3C5"/>
<path d="M25.8793 9.42234C26.204 8.63845 25.8318 7.73975 25.0479 7.41505C24.264 7.09034 23.3653 7.46259 23.0406 8.24648C22.7159 9.03037 23.0882 9.92906 23.872 10.2538C24.6559 10.5785 25.5546 10.2062 25.8793 9.42234Z" fill="#A6B3C5"/>
<path d="M11.7796 7.88035C9.61746 8.53468 8.16655 10.6115 8.16655 12.8875V20.6826C8.16655 21.0809 8.47949 21.3938 8.87778 21.3938H17.9815C18.3798 21.3938 18.6927 21.0809 18.6927 20.6826V12.8875C18.7496 9.44507 15.4495 6.77082 11.7796 7.88035Z" fill="#A6B3C5"/>
<path d="M13.4866 6.71407C15.3406 6.71407 16.8436 5.21107 16.8436 3.35704C16.8436 1.503 15.3406 0 13.4866 0C11.6326 0 10.1296 1.503 10.1296 3.35704C10.1296 5.21107 11.6326 6.71407 13.4866 6.71407Z" fill="#A6B3C5"/>
<path d="M7.05717 9.1038C8.31413 9.1038 9.3331 8.08482 9.3331 6.82784C9.3331 5.57087 8.31413 4.55189 7.05717 4.55189C5.8002 4.55189 4.78123 5.57087 4.78123 6.82784C4.78123 8.08482 5.8002 9.1038 7.05717 9.1038Z" fill="#A6B3C5"/>
<path d="M2.75133 10.3621C3.58883 10.2262 4.15758 9.43709 4.02166 8.59958C3.88573 7.76206 3.09662 7.19331 2.25911 7.32924C1.42161 7.46516 0.85286 8.25428 0.988781 9.0918C1.1247 9.92931 1.91382 10.4981 2.75133 10.3621Z" fill="#A6B3C5"/>
</svg>
